<svg data-v-423bf9ae="" xmlns="http://www.w3.org/2000/svg" viewBox="0 0 384 90" class="iconLeftSlogan"><!----><!----><!----><g data-v-423bf9ae="" id="638b5d26-c905-4460-ad64-398cf885a9b0" fill="black" transform="matrix(5.2863438788431925,0,0,5.2863438788431925,104.50220328454992,-14.801763323944158)"><path d="M2.35 8.20L2.35 7L1.04 7L1.04 14L2.35 14L2.35 10.23L2.37 10.29C2.37 8.78 3.39 8.25 4.38 8.41L4.38 6.86C3.44 6.86 2.73 7.49 2.35 8.20ZM8.34 6.90C6.29 6.90 4.91 8.55 4.91 10.50C4.91 12.46 6.26 14.11 8.48 14.11C9.44 14.11 10.28 13.85 10.86 13.41L10.86 12.08C10.19 12.54 9.48 12.84 8.55 12.84C7.35 12.84 6.48 12.14 6.27 11.03L11.62 11.03C11.77 8.82 10.53 6.90 8.34 6.90ZM8.32 8.22C9.32 8.22 10.04 8.92 10.23 9.94L6.29 9.94C6.50 8.93 7.25 8.22 8.32 8.22ZM21.15 6.86C20.02 6.86 19.24 7.50 18.80 8.27C18.35 7.34 17.50 6.86 16.59 6.86C15.64 6.86 14.94 7.34 14.55 7.95L14.55 7L13.23 7L13.23 14L14.55 14L14.55 10.15L14.56 10.19C14.56 8.89 15.19 8.08 16.18 8.08C17.18 8.08 17.82 8.89 17.82 10.15L17.82 14L19.14 14L19.14 10.19C19.14 8.89 19.77 8.08 20.78 8.08C21.77 8.08 22.40 8.89 22.40 10.15L22.40 14L23.72 14L23.73 9.93C23.73 7.90 22.60 6.86 21.15 6.86ZM26.59 5.68C27.10 5.68 27.48 5.29 27.48 4.77C27.48 4.28 27.10 3.89 26.59 3.89C26.07 3.89 25.69 4.28 25.69 4.77C25.69 5.29 26.07 5.68 26.59 5.68ZM25.93 14L27.24 14L27.24 7L25.93 7ZM33.00 6.86C32.03 6.86 31.29 7.32 30.88 7.98L30.88 7L29.57 7L29.57 14L30.88 14L30.88 10.18C30.88 8.79 31.61 8.06 32.59 8.06C33.59 8.06 34.30 8.79 34.30 10.18L34.30 14L35.62 14L35.62 9.98C35.62 7.90 34.37 6.86 33.00 6.86ZM42.74 2.80L42.74 8.12C42.20 7.39 41.38 6.90 40.35 6.90C38.40 6.90 37.07 8.48 37.07 10.50C37.07 12.52 38.40 14.10 40.35 14.10C41.38 14.10 42.20 13.61 42.74 12.88L42.74 14L44.06 14L44.06 2.80ZM40.57 12.82C39.31 12.82 38.43 11.79 38.43 10.50C38.43 9.23 39.31 8.19 40.57 8.19C41.83 8.19 42.74 9.27 42.74 10.50C42.74 11.73 41.83 12.82 40.57 12.82ZM49.42 14.15C51.55 14.15 52.82 12.77 52.82 10.70L52.82 4.20L51.49 4.20L51.49 10.54C51.49 12.07 50.68 12.87 49.42 12.87C48.17 12.87 47.35 12.07 47.35 10.54L47.35 4.20L46.02 4.20L46.02 10.70C46.02 12.77 47.29 14.15 49.42 14.15Z"></path></g><!----><g data-v-423bf9ae="" id="e6a6d4dd-83f7-47aa-b29b-251224456cf1" transform="matrix(2.8125,0,0,2.8125,0,0)" stroke="none" fill="black"><path d="M32 0H0v32h32V0zm-2.812 19.938H23.53C22.109 22.648 19.272 24.5 16 24.5s-6.109-1.852-7.529-4.562H2.812v-7.875H8.47C9.891 9.352 12.728 7.5 16 7.5s6.109 1.852 7.529 4.562h5.658v7.876z"></path></g><!----><g data-v-423bf9ae="" id="8bd9c91a-04a5-4f17-93b1-34740aa7cefd" fill="black" transform="matrix(0.8716028983700934,0,0,0.8716028983700934,108.9627914533308,57.86457321601648)"><path d="M1.19 2.80L1.19 12.60L1.61 12.60L1.61 7.56L6.05 12.60L6.64 12.60L2.04 7.39L6.43 2.80L5.85 2.80L1.61 7.24L1.61 2.80ZM15.53 7.48L19.87 7.48L19.87 7.08L15.53 7.08L15.53 3.21L20.15 3.21L20.15 2.80L15.11 2.80L15.11 12.60L20.15 12.60L20.15 12.19L15.53 12.19ZM29.95 7.48L34.29 7.48L34.29 7.08L29.95 7.08L29.95 3.21L34.57 3.21L34.57 2.80L29.53 2.80L29.53 12.60L34.57 12.60L34.57 12.19L29.95 12.19ZM43.95 2.80L43.95 12.60L44.37 12.60L44.37 8.48L46.05 8.48C47.01 8.48 47.77 8.23 48.35 7.73C48.92 7.22 49.21 6.53 49.21 5.64C49.21 4.76 48.92 4.06 48.35 3.56C47.77 3.05 47.01 2.80 46.05 2.80ZM44.37 3.21L46.05 3.21C46.90 3.21 47.57 3.41 48.05 3.83C48.54 4.24 48.78 4.85 48.78 5.64C48.78 6.44 48.54 7.04 48.05 7.45C47.57 7.87 46.90 8.08 46.05 8.08L44.37 8.08ZM57.85 9.74L57.47 9.90C58.10 11.77 59.15 12.71 60.62 12.71C61.53 12.71 62.23 12.45 62.69 11.93C63.16 11.41 63.39 10.77 63.39 10.01C63.39 9.66 63.33 9.35 63.22 9.06C63.10 8.78 62.97 8.55 62.82 8.37C62.68 8.19 62.48 8.02 62.22 7.86C61.95 7.70 61.74 7.58 61.58 7.50C61.42 7.43 61.19 7.34 60.91 7.22C60.88 7.21 60.76 7.16 60.56 7.08C60.37 7.01 60.25 6.96 60.20 6.94C60.15 6.91 60.05 6.87 59.88 6.80C59.71 6.73 59.60 6.67 59.55 6.64C59.50 6.60 59.41 6.54 59.28 6.45C59.15 6.37 59.06 6.30 59.01 6.24C58.96 6.18 58.90 6.10 58.81 6.00C58.73 5.90 58.67 5.80 58.64 5.70C58.61 5.61 58.58 5.50 58.55 5.38C58.52 5.25 58.51 5.12 58.51 4.98C58.51 4.41 58.70 3.95 59.10 3.62C59.50 3.29 59.99 3.12 60.58 3.12C61.71 3.12 62.49 3.77 62.93 5.07L63.34 4.90C63.13 4.23 62.79 3.69 62.33 3.29C61.86 2.89 61.28 2.69 60.59 2.69C59.90 2.69 59.30 2.90 58.79 3.33C58.28 3.76 58.03 4.33 58.03 5.04C58.03 5.39 58.10 5.71 58.25 5.99C58.39 6.27 58.61 6.51 58.89 6.71C59.18 6.91 59.43 7.07 59.66 7.17C59.89 7.28 60.19 7.41 60.55 7.55C60.83 7.65 61.02 7.72 61.12 7.77C61.23 7.82 61.40 7.90 61.64 8.02C61.88 8.13 62.06 8.24 62.17 8.34C62.27 8.45 62.40 8.58 62.54 8.75C62.69 8.92 62.79 9.11 62.85 9.32C62.90 9.54 62.93 9.78 62.93 10.05C62.93 10.72 62.74 11.27 62.36 11.68C61.98 12.09 61.42 12.29 60.66 12.29C59.43 12.29 58.49 11.44 57.85 9.74ZM89.00 2.80L85.99 8.16L83.10 2.80L82.57 2.80L85.76 8.62L85.76 12.60L86.21 12.60L86.21 8.61L89.53 2.80ZM97.86 7.70C97.86 6.38 98.27 5.29 99.08 4.41C99.89 3.53 100.92 3.09 102.16 3.09C103.40 3.09 104.43 3.53 105.24 4.41C106.05 5.29 106.46 6.38 106.46 7.70C106.46 9.02 106.05 10.11 105.24 10.99C104.43 11.87 103.40 12.31 102.16 12.31C100.92 12.31 99.89 11.87 99.08 10.99C98.27 10.11 97.86 9.02 97.86 7.70ZM97.44 7.70C97.44 9.16 97.89 10.36 98.78 11.30C99.67 12.24 100.80 12.71 102.16 12.71C103.52 12.71 104.65 12.24 105.54 11.30C106.43 10.36 106.88 9.16 106.88 7.70C106.88 6.24 106.43 5.04 105.54 4.10C104.65 3.16 103.52 2.69 102.16 2.69C100.80 2.69 99.67 3.16 98.78 4.10C97.89 5.04 97.44 6.24 97.44 7.70ZM115.77 2.80L115.77 9.24C115.77 10.29 116.05 11.13 116.62 11.77C117.19 12.42 117.95 12.74 118.89 12.74C119.83 12.74 120.59 12.42 121.16 11.77C121.73 11.13 122.01 10.29 122.01 9.24L122.01 2.80L121.59 2.80L121.59 9.24C121.59 10.17 121.34 10.92 120.83 11.47C120.32 12.02 119.67 12.29 118.89 12.29C118.10 12.29 117.46 12.02 116.95 11.47C116.44 10.92 116.19 10.17 116.19 9.24L116.19 2.80ZM142.52 7.70C142.52 6.38 142.93 5.29 143.74 4.41C144.55 3.53 145.58 3.09 146.82 3.09C148.06 3.09 149.09 3.53 149.90 4.41C150.71 5.29 151.12 6.38 151.12 7.70C151.12 9.02 150.71 10.11 149.90 10.99C149.09 11.87 148.06 12.31 146.82 12.31C145.58 12.31 144.55 11.87 143.74 10.99C142.93 10.11 142.52 9.02 142.52 7.70ZM142.10 7.70C142.10 9.16 142.55 10.36 143.44 11.30C144.33 12.24 145.46 12.71 146.82 12.71C148.18 12.71 149.31 12.24 150.20 11.30C151.09 10.36 151.54 9.16 151.54 7.70C151.54 6.24 151.09 5.04 150.20 4.10C149.31 3.16 148.18 2.69 146.82 2.69C145.46 2.69 144.33 3.16 143.44 4.10C142.55 5.04 142.10 6.24 142.10 7.70ZM167.43 2.80L167.43 11.79L159.94 2.45L159.94 12.60L160.36 12.60L160.36 3.61L167.85 12.95L167.85 2.80ZM187.03 3.21L189.55 3.21L189.55 12.60L189.97 12.60L189.97 3.21L192.49 3.21L192.49 2.80L187.03 2.80ZM201.45 2.80ZM201.03 2.80L201.03 12.60L201.45 12.60L201.45 8.48L203 8.48L206.12 12.60L206.67 12.60L203.48 8.47C204.37 8.41 205.09 8.15 205.63 7.67C206.16 7.20 206.43 6.52 206.43 5.64C206.43 4.71 206.13 4.00 205.52 3.52C204.91 3.04 204.12 2.80 203.13 2.80ZM201.45 3.21L203.13 3.21C203.99 3.21 204.69 3.41 205.21 3.83C205.73 4.24 206.00 4.85 206.00 5.64C206.00 6.44 205.73 7.04 205.21 7.45C204.69 7.87 203.99 8.08 203.13 8.08L201.45 8.08ZM218.29 2.45L214.02 12.60L214.51 12.60L215.78 9.52L220.79 9.52L222.07 12.60L222.56 12.60ZM218.29 3.50L220.60 9.07L215.98 9.07ZM230.37 7.70C230.37 6.33 230.75 5.22 231.51 4.38C232.27 3.53 233.28 3.11 234.53 3.11C235.72 3.11 236.77 3.54 237.68 4.41L237.68 3.81C236.83 3.06 235.78 2.69 234.53 2.69C233.17 2.69 232.07 3.16 231.20 4.09C230.34 5.03 229.91 6.23 229.91 7.70C229.91 9.17 230.34 10.37 231.20 11.30C232.07 12.24 233.17 12.71 234.53 12.71C235.78 12.71 236.83 12.34 237.68 11.59L237.68 11.03C236.81 11.87 235.76 12.29 234.53 12.29C233.28 12.29 232.27 11.87 231.51 11.03C230.75 10.18 230.37 9.07 230.37 7.70ZM246.99 2.80L246.99 12.60L247.41 12.60L247.41 7.56L251.85 12.60L252.43 12.60L247.84 7.39L252.22 2.80L251.65 2.80L247.41 7.24L247.41 2.80Z"></path></g></svg>