<svg data-v-423bf9ae="" xmlns="http://www.w3.org/2000/svg" viewBox="0 0 273.72687959344404 60" class="font"><!----><!----><!----><g data-v-423bf9ae="" id="60738e1b-7498-4ab1-8f56-85af8370e3be" fill="black" transform="matrix(5.2863438788431925,0,0,5.2863438788431925,-5.497796715450079,-14.801763323944158)"><path d="M2.35 8.20L2.35 7L1.04 7L1.04 14L2.35 14L2.35 10.23L2.37 10.29C2.37 8.78 3.39 8.25 4.38 8.41L4.38 6.86C3.44 6.86 2.73 7.49 2.35 8.20ZM8.34 6.90C6.29 6.90 4.91 8.55 4.91 10.50C4.91 12.46 6.26 14.11 8.48 14.11C9.44 14.11 10.28 13.85 10.86 13.41L10.86 12.08C10.19 12.54 9.48 12.84 8.55 12.84C7.35 12.84 6.48 12.14 6.27 11.03L11.62 11.03C11.77 8.82 10.53 6.90 8.34 6.90ZM8.32 8.22C9.32 8.22 10.04 8.92 10.23 9.94L6.29 9.94C6.50 8.93 7.25 8.22 8.32 8.22ZM21.15 6.86C20.02 6.86 19.24 7.50 18.80 8.27C18.35 7.34 17.50 6.86 16.59 6.86C15.64 6.86 14.94 7.34 14.55 7.95L14.55 7L13.23 7L13.23 14L14.55 14L14.55 10.15L14.56 10.19C14.56 8.89 15.19 8.08 16.18 8.08C17.18 8.08 17.82 8.89 17.82 10.15L17.82 14L19.14 14L19.14 10.19C19.14 8.89 19.77 8.08 20.78 8.08C21.77 8.08 22.40 8.89 22.40 10.15L22.40 14L23.72 14L23.73 9.93C23.73 7.90 22.60 6.86 21.15 6.86ZM26.59 5.68C27.10 5.68 27.48 5.29 27.48 4.77C27.48 4.28 27.10 3.89 26.59 3.89C26.07 3.89 25.69 4.28 25.69 4.77C25.69 5.29 26.07 5.68 26.59 5.68ZM25.93 14L27.24 14L27.24 7L25.93 7ZM33.00 6.86C32.03 6.86 31.29 7.32 30.88 7.98L30.88 7L29.57 7L29.57 14L30.88 14L30.88 10.18C30.88 8.79 31.61 8.06 32.59 8.06C33.59 8.06 34.30 8.79 34.30 10.18L34.30 14L35.62 14L35.62 9.98C35.62 7.90 34.37 6.86 33.00 6.86ZM42.74 2.80L42.74 8.12C42.20 7.39 41.38 6.90 40.35 6.90C38.40 6.90 37.07 8.48 37.07 10.50C37.07 12.52 38.40 14.10 40.35 14.10C41.38 14.10 42.20 13.61 42.74 12.88L42.74 14L44.06 14L44.06 2.80ZM40.57 12.82C39.31 12.82 38.43 11.79 38.43 10.50C38.43 9.23 39.31 8.19 40.57 8.19C41.83 8.19 42.74 9.27 42.74 10.50C42.74 11.73 41.83 12.82 40.57 12.82ZM49.42 14.15C51.55 14.15 52.82 12.77 52.82 10.70L52.82 4.20L51.49 4.20L51.49 10.54C51.49 12.07 50.68 12.87 49.42 12.87C48.17 12.87 47.35 12.07 47.35 10.54L47.35 4.20L46.02 4.20L46.02 10.70C46.02 12.77 47.29 14.15 49.42 14.15Z"></path></g><!----><!----></svg>